PathFileType	4	(X/Y/Z)	C:/Users/Carlo/Dropbox/Carlos/SARAH/CongressoMarcha2025/WorkshopOpenSim/C3D/Caso01/Walking 01.c3d.trc
DataRate	CameraRate	NumFrames	NumMarkers	Units	OrigDataRate	OrigDataStartFrame	OrigNumFrames
100.000000	100.000000	4	85	mm	100.000000	234	375
Frame#	Time	PELO			PELA			PELL			PELP			LFEO			LFEA			LFEL			LFEP			LTIO			LTIA			LTIL			LTIP			LFOO			LFOA			LFOL			LFOP			LTOO			LTOA			LTOL			LTOP			RFEO			RFEA			RFEL			RFEP			RTIO			RTIA			RTIL			RTIP			RFOO			RFOA			RFOL			RFOP			RTOO			RTOA			RTOL			RTOP			LASI			RASI			RPSI			LTHI			LKNE			LTIB			LANK			LHEE			LTOE			RTHI			RKNE			RTIB			RANK			RHEE			RTOE			LPSI			LHipAngles			LKneeAngles			LAbsAnkleAngle			LAnkleAngles			RHipAngles			RKneeAngles			RAnkleAngles			RAbsAnkleAngle			LPelvisAngles			RPelvisAngles			LFootProgressAngles			RFootProgressAngles			LHipPower			LKneePower			LAnklePower			RHipPower			RKneePower			RAnklePower			LGroundReactionForce			LNormalisedGRF			LAnkleForce			RAnkleForce			RKneeForce			LKneeForce			RHipForce			LHipForce			LGroundReactionMoment			LAnkleMoment			RAnkleMoment			RKneeMoment			LKneeMoment			RHipMoment			LHipMoment			
		X1	Y1	Z1	X2	Y2	Z2	X3	Y3	Z3	X4	Y4	Z4	X5	Y5	Z5	X6	Y6	Z6	X7	Y7	Z7	X8	Y8	Z8	X9	Y9	Z9	X10	Y10	Z10	X11	Y11	Z11	X12	Y12	Z12	X13	Y13	Z13	X14	Y14	Z14	X15	Y15	Z15	X16	Y16	Z16	X17	Y17	Z17	X18	Y18	Z18	X19	Y19	Z19	X20	Y20	Z20	X21	Y21	Z21	X22	Y22	Z22	X23	Y23	Z23	X24	Y24	Z24	X25	Y25	Z25	X26	Y26	Z26	X27	Y27	Z27	X28	Y28	Z28	X29	Y29	Z29	X30	Y30	Z30	X31	Y31	Z31	X32	Y32	Z32	X33	Y33	Z33	X34	Y34	Z34	X35	Y35	Z35	X36	Y36	Z36	X37	Y37	Z37	X38	Y38	Z38	X39	Y39	Z39	X40	Y40	Z40	X41	Y41	Z41	X42	Y42	Z42	X43	Y43	Z43	X44	Y44	Z44	X45	Y45	Z45	X46	Y46	Z46	X47	Y47	Z47	X48	Y48	Z48	X49	Y49	Z49	X50	Y50	Z50	X51	Y51	Z51	X52	Y52	Z52	X53	Y53	Z53	X54	Y54	Z54	X55	Y55	Z55	X56	Y56	Z56	X57	Y57	Z57	X58	Y58	Z58	X59	Y59	Z59	X60	Y60	Z60	X61	Y61	Z61	X62	Y62	Z62	X63	Y63	Z63	X64	Y64	Z64	X65	Y65	Z65	X66	Y66	Z66	X67	Y67	Z67	X68	Y68	Z68	X69	Y69	Z69	X70	Y70	Z70	X71	Y71	Z71	X72	Y72	Z72	X73	Y73	Z73	X74	Y74	Z74	X75	Y75	Z75	X76	Y76	Z76	X77	Y77	Z77	X78	Y78	Z78	X79	Y79	Z79	X80	Y80	Z80	X81	Y81	Z81	X82	Y82	Z82	X83	Y83	Z83	X84	Y84	Z84	X85	Y85	Z85	

235	2.34	192.4384155273439	926.4030151367192	1031.73828125	213.2510223388673	926.970092773438	1158.972534179688	319.3487243652345	917.0988159179692	1011.020141601563	201.5293426513673	1054.991943359375	1029.678100585938	307.142303466797	491.6192016601565	1050.015747070313	371.1858520507814	527.672302246094	1477.8837890625	733.4586181640627	537.9016113281252	982.3046264648442	255.9048004150392	921.7709960937505	1021.439453125	272.7723999023439	299.1426086425782	653.0112304687502	215.1924438476564	-75.17974853515628	839.4758300781255	689.6793212890627	233.0054931640626	648.9830322265627	305.5579528808595	482.7464599609377	1031.71484375	289.8330383300782	153.8406219482422	706.9258422851565	297.027069091797	248.6245727539064	902.8464965820317	507.4253540039065	154.9781036376954	698.3857421875002	285.0924682617189	349.8899841308595	612.2537231445315	291.4132385253907	88.4908142089844	738.4832763671877	293.8112182617189	120.0854492187501	803.790161132813	363.9440307617189	88.86999511718753	735.6365966796877	289.8330383300782	153.8406066894532	706.9259033203127	144.9845428466797	527.9641723632815	1166.145141601563	223.5190429687501	652.838806152344	1561.573730468751	559.3527832031252	519.8728637695315	1086.404296875	128.9719848632813	931.0349121093755	1042.037353515625	143.7061309814454	89.4665222167969	1115.908325195313	207.5981597900392	41.87667465209962	1529.67626953125	560.200134277344	95.5402755737305	1052.2939453125	144.9266204833985	508.0942687988284	1163.86865234375	135.3001861572266	77.2265319824219	1270.785278320313	138.5944366455079	294.4876708984376	1268.289794921875	352.4145507812501	73.83884429931643	1262.456909179688	126.9344177246094	74.85939788818362	1053.658935546875	138.0887756347657	78.01556396484378	1343.160888671875	139.1868591308594	150.4359436035157	1342.3291015625	210.4602355957032	76.88632965087893	1340.384765625	135.3001861572266	77.2265319824219	1270.785400390625	312.8124389648439	1015.651550292969	1059.413818359375	100.9709091186524	1031.182250976563	1093.9970703125	122.2193908691407	1024.261596679688	890.973754882813	382.0961914062501	710.430603027344	1020.358947753907	364.0978393554689	497.8024597167971	1040.969482421875	353.0478515625001	376.6473388671876	833.3886108398442	317.7084045410157	292.0140380859376	652.5769653320315	268.5293273925782	331.5989990234376	589.5632324218752	279.6284484863282	130.0335845947266	689.841247558594	17.92502212524415	795.2660522460942	1106.967041015625	89.02182769775393	529.0569458007815	1176.914428710938	71.80522155761722	369.2308044433595	1159.188110351563	97.74397277832037	88.79624938964847	1122.928344726563	141.3200836181641	56.87819671630862	1047.496948242188	144.1163330078126	57.5450248718262	1273.328369140625	234.8770446777345	1020.408569335938	877.249633789063	-10.20107936859131	1.115374803543091	4.642216205596926	-0.9904353022575383	17.30237007141114	68.72872161865237	0	0	0.007893039844930175	2.562902688980103	-9.114069938659672	0.007996729575097564	3.383175134658815	0.6460071206092837	17.01574516296387	2.16102147102356	-1.978160500526429	23.66692924499512	1.795340418815614	-6.467507362365726	7.207428932189945	0	0	7.161324501037601	-4.043412208557131	-9.313310623168949	-0.9178808331489567	4.043412208557131	9.313310623168949	-0.9178808331489567	1.893622756004334	-1.247399687767029	-25.77586936950685	-0.8692784309387211	2.206356048583985	-90.62461090087893	0	0.3167656958103181	0	0	-0.4308333694934847	0	0	0.01865102536976338	0	0	0.007277393713593486	0	0	0.00955446902662516	0	0	0.01727882400155068	0	nan	nan	nan	nan	nan	nan	-0.05615444481372836	0.1205833032727242	-0.1081168204545975	-0.002301654778420926	0.008207125589251522	-0.1420774906873704	0.01605607196688653	0.5815687179565432	-0.1892578303813935	-0.1554062217473984	0.1529691815376282	-0.1239398643374444	0.09012871980667117	1.65710997581482	0.03021082840859891	0.1107797697186471	1.488993644714356	-0.1851441413164139	nan	nan	nan	-7.579122698298211e-16	-8.457861900329593	-28.24902153015138	-1.879237461173759e-15	-0.2615823149681092	-16.99845123291016	2.297966957092286	-0.5477443337440493	10.75789260864258	-28.96680450439455	-9.711974143981937	184.0617218017579	-6.526834011077884	-1.203703761100769	3.490077733993532	-48.98836898803714	72.21426391601565	-90.96232604980472	
236	2.35	192.8861236572267	930.0206909179692	1046.9091796875	213.254119873047	930.869506835938	1174.213745117188	319.9232177734376	921.4882812500005	1026.640869140625	201.1777496337892	1058.66162109375	1044.724853515625	309.1833496093751	497.6701965332034	1080.004516601563	369.4117431640626	548.083679199219	1506.328857421875	735.2227783203127	543.566833496094	1014.389038085938	256.4155883789064	925.7746582031255	1036.835205078125	274.1578674316407	302.0083007812501	685.9888916015627	217.9185333251954	-69.58966064453128	875.5178222656255	689.9586181640627	236.754364013672	681.4309082031252	307.5642700195314	488.6255493164065	1061.790893554688	294.1781616210939	158.1674346923829	742.7297363281252	301.2988281250001	257.0908508300782	936.5958862304692	511.6419067382815	162.8777770996094	732.338806152344	285.2644042968751	352.1071777343751	644.0961914062502	297.149383544922	93.520866394043	775.607543945313	299.522918701172	126.4953155517579	840.229614257813	369.6372985839845	95.09099578857425	772.143920898438	294.1781311035157	158.1674194335938	742.7297363281252	144.9718170166016	527.897399902344	1172.325927734375	221.2870178222657	644.1336059570315	1571.511108398438	560.4424438476565	521.8198242187502	1094.6669921875	129.3566284179688	934.266479492188	1056.983154296875	143.947738647461	89.74771881103518	1116.777099609375	200.7492218017579	37.06685256958009	1531.25732421875	561.7613525390627	95.930778503418	1060.3046875	144.9254608154297	508.0562744140627	1169.810546875	135.2251129150391	77.06830596923831	1271.601196289063	137.8855590820313	294.3441162109376	1269.693725585938	352.3668823242189	74.3406677246094	1263.760009765625	127.3608856201172	75.25818634033206	1054.45068359375	137.8465270996094	77.67166900634768	1343.98486328125	138.7333526611329	150.0969543457032	1343.348999023438	210.2271423339845	76.76243591308597	1341.37109375	135.225082397461	77.06829833984378	1271.601318359375	312.5657348632814	1020.057922363282	1074.898193359375	100.5844345092774	1034.295532226563	1108.718994140625	122.893653869629	1027.513305664063	905.8405151367192	383.4872131347657	715.8352050781252	1043.708984375	366.185272216797	503.8109130859377	1071.225463867188	354.8111877441407	381.3509521484376	865.4836425781255	319.1050720214845	294.9544982910157	685.4961547851565	269.019500732422	332.351531982422	621.5714111328127	284.2571411132814	133.7569122314454	726.2436523437502	18.32915115356446	796.5243530273442	1118.3173828125	88.9479904174805	528.7169189453127	1182.797729492188	71.74304199218753	369.155487060547	1162.18505859375	97.87168884277349	89.06585693359378	1123.004638671875	141.3031005859376	57.03047180175784	1047.490356445313	144.0925903320313	57.57405090332034	1273.29443359375	235.5461578369142	1023.824951171875	892.529174804688	-9.767042160034183	1.477065801620484	6.470541954040531	-0.584337651729584	17.03486251831055	70.16634368896487	0	0	0.7326046228408816	2.779944181442262	-9.997202873229984	0.7438927292823794	3.274780273437502	0.6447882056236269	15.62730216979981	2.010988235473634	-2.660576343536378	23.09322166442872	1.61044478416443	-5.615616798400881	7.740164279937748	0	0	7.702803134918216	-3.687387228012087	-9.108758926391605	-0.9727991819381718	3.687387228012087	9.108758926391605	-0.9727991819381718	1.875429272651673	-2.345959901809693	-26.95689773559572	-0.70194947719574	2.074013710021974	-90.47758483886722	0	0.2132569551467897	0	0	-0.2843926548957826	0	0	0.009476196952164177	0	0	0.002616687444970013	0	0	0.004971774294972421	0	0	0.01498034689575434	0	nan	nan	nan	nan	nan	nan	-0.06288388371467593	0.1150255352258683	-0.08207330852746966	-0.002358333906158806	0.005441004410386087	-0.1400202214717866	0.005604295525699856	0.5799837708473208	-0.1833940446376801	-0.1443532705307007	0.0887456610798836	-0.1044912710785866	0.05587098374962809	1.608653783798219	0.03008356317877771	0.08058663457632068	1.350840091705323	-0.1994966566562654	nan	nan	nan	-3.789561455028224e-15	-11.72418117523194	-23.09630203247071	1.80448256841383e-15	-0.3695074319839479	-15.96928215026856	2.215406894683839	-0.6004653573036196	4.819988727569582	-26.01705551147462	-12.77876472473145	174.4067993164063	0.9311738014221196	-1.35567581653595	1.047979235649109	-50.22028732299808	66.57621765136722	-60.68811035156253	
237	2.36	193.4092102050782	933.6044311523442	1061.930297851563	213.2114257812501	934.6817016601567	1189.322387695313	320.5886230468751	925.9115600585942	1042.226196289063	200.8458709716798	1062.296630859375	1059.68603515625	311.135223388672	504.1462097167971	1109.246826171875	366.8063049316407	568.174987792969	1533.693237304688	736.9576416015627	549.8768310546877	1046.496704101563	257.0093994140626	929.7783203125005	1052.138427734375	275.3307495117189	303.1499023437501	719.4798583984377	221.6912689208986	-64.69543457031253	914.0989379882817	690.0848388671877	239.7972869873048	714.0499267578127	309.4751892089845	494.8273620605471	1091.175903320313	298.0524902343751	161.0934600830079	779.5982055664067	305.3328857421876	264.9321289062501	970.8706665039067	515.3197021484377	168.8382873535157	767.1238403320315	285.301483154297	352.3476562500001	676.2547607421877	302.3028259277345	97.34204101562506	814.046020507813	304.7296447753907	131.9549560546876	877.8035278320317	374.7252197265626	99.92364501953131	809.8878784179692	298.0524902343751	161.0934448242188	779.5982055664067	144.9148864746094	527.8598632812502	1178.056518554688	218.8427124023439	635.1798095703127	1580.921630859376	561.5559082031252	523.6668090820315	1102.7177734375	129.8089904785157	937.4304809570317	1071.722290039063	144.1628112792969	90.00079345703128	1117.677124023438	193.6483612060548	32.66767501831056	1532.82861328125	563.2539062500002	96.05434417724615	1068.557983398438	144.880844116211	508.0473632812502	1175.324462890625	135.1527252197266	76.9069747924805	1272.450317382813	137.2510070800782	294.1931152343751	1271.097045898438	352.3167419433595	74.76380157470706	1265.053344726563	127.7428970336915	75.62600708007815	1055.280029296875	137.6226654052735	77.3339538574219	1344.840454101563	138.3220214843751	149.7626647949219	1344.389404296875	210.0106658935548	76.61962890625003	1342.374877929688	135.1527862548829	76.90698242187503	1272.450439453125	312.3222656250001	1024.46630859375	1090.382202148438	100.1731185913087	1037.298828125	1123.250854492188	123.7829742431641	1030.777587890625	920.611694335938	385.0018310546877	721.5776977539065	1066.75830078125	368.1943969726564	510.2740173339846	1100.838500976563	356.4080200195314	385.499694824219	897.4733276367192	320.3052978515626	296.2801513671876	718.8909912109377	269.3796997070314	331.2306518554689	653.945983886719	288.3672790527345	136.1067352294922	763.821472167969	18.76789855957032	797.7647094726567	1129.304565429688	88.82725524902347	528.4243164062502	1188.198364257813	71.64163970947268	369.1470642089845	1164.871948242188	97.98369598388678	89.33375549316409	1123.08935546875	141.2770538330079	57.19870376586917	1047.48046875	144.0679321289063	57.60209655761722	1273.293823242188	236.4337463378907	1027.290649414063	907.8058471679692	-9.315020561218265	1.847816705703736	8.235725402832035	-0.005989958997815851	16.59605598449708	71.20709991455081	0	0	1.372506976127625	2.934401273727418	-10.62271213531494	1.396448850631714	3.125802278518679	0.6710491776466372	14.23540878295899	1.859098315238954	-3.344531774520876	22.43004989624024	1.417773604393006	-4.725186347961428	8.216011047363285	0	0	8.187895774841312	-3.306730985641481	-8.850079536437992	-0.9990971088409428	3.306730985641481	8.850079536437992	-0.9990971088409428	1.919208884239198	-3.356846094131472	-28.38439750671388	-0.5535870194435122	1.95413374900818	-90.33795166015628	0	0.1377216428518296	0	0	-0.1546383202075959	0	0	0.005455266218632461	0	0	-0.0008723054779693489	0	0	-0.001674177357926966	0	0	0.01308610662817956	0	nan	nan	nan	nan	nan	nan	-0.06673773378133777	0.1062955111265183	-0.06417886167764666	-0.002201753202825786	0.001908598351292313	-0.1392737329006196	-1.388324835716049e-05	0.5788422822952273	-0.1779620200395585	-0.1341095119714737	0.04626213014125825	-0.09014698863029483	0.03122403100132944	1.556083798408509	0.03511284291744234	0.04673574864864351	1.22025203704834	-0.1966586410999299	nan	nan	nan	7.579122698298211e-16	-14.11128234863282	-19.34539031982423	-6.283862149971799e-16	-0.4233755469322207	-15.32240390777589	1.802972078323365	-0.6139242649078371	-1.11574137210846	-22.56221580505372	-14.99509143829346	162.4280242919922	3.880172014236452	-1.265660524368287	-0.7983866333961491	-52.43047714233401	59.55378341674808	-37.85903549194337	
238	2.37	193.9797668457032	937.0837402343755	1076.832153320313	213.0830841064454	938.3415527343755	1204.329345703125	321.3151245117189	930.281372070313	1057.820190429688	200.5212402343751	1065.824584960938	1074.581909179688	312.9825134277345	510.8977661132815	1137.7275390625	363.4185791015626	587.7514648437502	1560.010253906251	738.621276855469	556.7476806640627	1078.546142578125	257.6575317382814	933.703002929688	1067.386596679688	276.3466186523439	302.5899963378907	753.4268798828127	226.0901336669923	-60.4330749511719	954.9924316406255	690.1027832031252	241.7268829345704	746.9734497070315	311.2787170410157	501.210388183594	1119.855346679688	301.4122314453126	162.6234588623047	817.3927612304692	309.0095214843751	272.0168457031251	1005.531127929688	518.445983886719	172.7438354492188	802.7441406250005	285.3098754882814	350.6429443359376	708.7187500000002	306.7796936035157	99.95031738281256	853.6174316406255	309.3121032714845	136.414779663086	916.330200195313	379.1242675781251	103.3237915039063	848.7345581054692	301.4122314453126	162.6234741210938	817.3927612304692	144.8089904785157	527.842712402344	1183.411010742188	216.2171936035157	626.022399902344	1589.814331054688	562.6514892578127	525.3897705078127	1110.58544921875	130.3020172119141	940.464477539063	1086.278076171875	144.3488311767579	90.23743438720706	1118.58642578125	186.6217041015626	28.61085510253908	1534.303588867188	564.6086425781252	95.99947357177737	1076.705810546875	144.7882080078126	508.0585632324221	1180.480224609375	135.0807495117188	76.72938537597659	1273.308959960938	136.6881408691407	294.0223999023439	1272.51171875	352.2623901367189	75.09714508056643	1266.3115234375	128.0775756835938	75.98429870605472	1056.122680664063	137.4151306152344	76.9777526855469	1345.704467773438	137.9508666992188	149.4087677001954	1345.438720703125	209.8090057373048	76.43373107910159	1343.3720703125	135.0808105468751	76.72939300537112	1273.30908203125	312.0603637695314	1028.792602539063	1105.900268554688	99.71733093261724	1040.13623046875	1137.6044921875	124.8837509155274	1033.980346679688	935.3048706054692	386.6243896484377	727.547058105469	1089.502563476563	370.1056213378907	517.0510253906252	1129.784912109375	357.8479614257814	388.9755859375002	929.3297729492192	321.3568420410157	295.9689941406251	752.7248535156252	269.6917114257814	328.2844848632814	686.6994628906252	291.911590576172	137.0886993408204	802.4230957031255	19.22906684875489	798.9616699218755	1139.978881835938	88.65644073486331	528.172302246094	1193.19775390625	71.50306701660159	369.1967773437501	1167.347290039063	98.08231353759771	89.60308074951175	1123.197143554688	141.245346069336	57.38434219360354	1047.475830078125	144.0397644042969	57.60997390747073	1273.32666015625	237.5355987548829	1030.725341796875	923.0993652343755	-8.861880302429203	2.216213464736939	9.929661750793461	0.7257053852081301	16.04763793945313	71.86101531982425	0	0	1.912238001823426	3.031928300857546	-11.01632690429688	1.948149681091309	2.942761898040772	0.7327340841293337	12.84639358520509	1.710871815681458	-3.989992856979372	21.69838905334473	1.226969122886658	-3.841069221496584	8.639746665954593	0	0	8.620193481445316	-2.908341169357301	-8.532107353210453	-1.001362800598145	2.908341169357301	8.532107353210453	-1.001362800598145	2.004826068878175	-4.240576744079592	-30.02762985229494	-0.4240356087684634	1.846837043762208	-90.19656372070315	0	0.08424171805381778	0	0	-0.04614426195621492	0	0	0.00511022098362446	0	0	-0.005444659851491453	0	0	-0.00927624944597483	0	0	0.01157920155674219	0	nan	nan	nan	nan	nan	nan	-0.06752672046422961	0.09523691236972814	-0.0543332248926163	-0.001792863593436778	-0.001839550677686931	-0.1394036710262299	-0.0009083296172320847	0.5779168605804446	-0.1727478206157685	-0.1251438111066819	0.02290916629135609	-0.0819707661867142	0.01754269003868104	1.504218816757203	0.04671776667237283	0.01380021963268519	1.102865099906922	-0.1817200332880021	nan	nan	nan	1.515824539659642e-15	-15.47583675384522	-16.99119949340821	5.491903284947973e-16	-0.4487127959728243	-14.98290920257569	1.142488479614258	-0.6100633144378664	-6.723842144012455	-18.90925025939942	-16.23852348327637	148.974105834961	2.391726732254029	-1.00325894355774	-2.595522403717042	-54.44520568847659	51.89351272583011	-21.05622100830079	
